<svg xmlns="http://www.w3.org/2000/svg" xmlns:xlink="http://www.w3.org/1999/xlink" viewBox="-0.002 0 110.911 95.606">
	<defs>
		<linearGradient id="a" x1="24.57" x2="89.61" y1="85.29" y2="20.23" gradientTransform="matrix(1 0 0 -1 0 98)"
			gradientUnits="userSpaceOnUse">
			<stop offset="0" stop-color="#ffb2c2" />
			<stop offset="1" stop-color="#f85e8a" />
		</linearGradient>
	</defs>
	<path fill="url(#a)"
		d="M9.75 53.78C5 35.32 19.56-8.2 74.87 5.9c53 13.53 25.55 77.68-8 87.24-29.35 8.37-42.7-5.48-32-27.83C42.33 49.62 50 36.75 57.33 41.14c3.93 2.37 4.11 8.62-2.5 8.62s-8.45 10.67 2.92 8.78c6.06-1 8 3.63 10.9 8.1s21.77 5.28 9-19.62c-8.25-16-17-23-25.49-23S34.68 33 22.31 55.11c-4.66 8.35-9.59 10.21-12.56-1.33" />
	<path fill="#ab8eeb" d="M107.12 27.49c2.44 0 2.55-6.12-1.06-3.59-2.06 1.44-1.38 3.58 1.06 3.59" />
	<path fill="#ffbd88" d="M102.41 20.23c-1.86 4.7 6 1.35 8.07-1.32s-3.81-9.42-8.07 1.32" />
	<path fill="#ab8eeb" d="M13.35 69C-4.85 74.07-3 96.48 10.22 82.7c9.46-9.89 12.14-16.16 3.13-13.7" />
	<path fill="#f757af" d="M24.7 76.43c-8.69 5.51-3.91 15 .46 11.36s2.58-13.29-.46-11.36" />
	<path fill="#ffbd88" d="M83.4 85.6c-2.45.1-1.82 7.21 2.35 6.2 4.73-1.15.09-6.31-2.35-6.2" />
	<path fill="#ff3e24"
		d="M14.22 25.76a31.7 31.7 0 0 0-6 5.44c-10.4 12.21-5.88 25 2.72 26.25 4.8.7 10.88-2.2 16.33-10.81C37.19 30.63 45 24 52.16 24c4.85 0 9.68 2.19 14.51 7-11.39-12.72-36.48-16.38-52.45-5.24"
		opacity=".5" />
	<path fill="#3c2299"
		d="M104.62 40.27C91.51 22.49 56.43 16.1 42.3 28c3.48-2.75 6.72-4 9.86-4 8.49 0 17.24 7 25.49 23 12.77 24.9-6.1 24.09-9 19.62s-4.84-9.1-10.9-8.1c-11.37 1.89-9.54-8.77-2.92-8.78s6.43-6.25 2.5-8.62c-7.06-4.24-14.49 7.63-21.73 22.6-5.26 10.81 23.4 24.68 46.64 21a63.7 63.7 0 0 0 15.08-18.36 64 64 0 0 1-15.08 18.4c9.79-1.54 18.62-6.19 23.55-15.48 6.07-11.44 4.52-21.28-1.17-29.01"
		opacity=".5" style="isolation:isolate" />
	<path fill="#ff00a4"
		d="M75.1 2.33c-1.55.6-3.4 1.38-5.48 2.38C58.2 10.2 39.73 22.42 25.55 49.47 36.3 31.41 44.53 24 52.16 24c8.49 0 17.24 7 25.49 23C90 71.1 72.76 71.14 69 67.07c6.84 8.24 24 1.8 29.67-31.66A95 95 0 0 0 100 22.72C100.73.09 89.18-3.17 75.1 2.33"
		opacity=".3" style="isolation:isolate" />
</svg>