<svg xmlns="http://www.w3.org/2000/svg" viewBox="0 0 882.9100341796875 858.6500244140625"><defs><clipPath id="a6b0febea-c65f-42b1-bb7f-489810995f8d"><path d="M444 467.08a51.08 51.08 0 0 1-36.12-15l-.11-.11a51.08 51.08 0 0 1 0-72.26c.39-.39.79-.75 1.2-1.09A51.12 51.12 0 0 1 480.15 452l-.11.11A51.06 51.06 0 0 1 444 467.08m-99.22 47.5a139.84 139.84 0 0 0 222-32.64h238.14a78 78 0 0 0 0-156H627.09v.06l-76.23-.15a139.86 139.86 0 1 0-206.11 188.7z" fill="none" clip-rule="evenodd"></path></clipPath><linearGradient id="bdde02842-c7bf-48ae-8c14-70cecd8389a5" x1="-77.94" y1="1046.95" x2="790.75" y2="230.02" gradientUnits="userSpaceOnUse"><stop offset="0" stop-color="#0463ef"></stop><stop offset="1" stop-color="#c835f8"></stop></linearGradient><clipPath id="c49e772bf-d6d4-4784-a8c6-0b6a8bc8e0d2"><path d="M325.67 232.16H47.86a430.29 430.29 0 0 0-13.22 366.37h291a219.34 219.34 0 0 1 .07-366.37" fill="none" clip-rule="evenodd"></path></clipPath><linearGradient id="d2f5ce5b6-904c-4688-97c3-6033a0860d2d" x1="-280.14" y1="831.93" x2="588.54" y2="15" gradientUnits="userSpaceOnUse"><stop offset="0" stop-color="#0463ef"></stop><stop offset="1" stop-color="#c835f8"></stop></linearGradient><clipPath id="ee1fdfc3a-41ba-47a8-a5bf-3405b004586c"><path d="M830.76 277.05a429.45 429.45 0 0 0-762.31-80.38H444.3a214.68 214.68 0 0 1 90.61 22.74 229.4 229.4 0 0 1 72.43 56.74z" fill="none" clip-rule="evenodd"></path></clipPath><linearGradient id="fb2b56d87-63a6-4f97-8575-d22dea6008c3" x1="-283.7" y1="828.15" x2="584.98" y2="11.21" gradientUnits="userSpaceOnUse"><stop offset="0" stop-color="#0463ef"></stop><stop offset="1" stop-color="#c835f8"></stop></linearGradient><clipPath id="g1b9d1e1a-d9b8-40fc-8a7a-59d3f4516886"><path d="M624.34 531.78a221.25 221.25 0 0 1-75.5 72.69 216.83 216.83 0 0 1-103.27 29.46c-.52.05-1 .07-1.57.07H51.84a429.36 429.36 0 0 0 794.21-101.32z" fill="none" clip-rule="evenodd"></path></clipPath><linearGradient id="h15f1875a-a55f-40dc-b2d5-b69c2e1bbd8e" x1="-6.19" y1="1123.24" x2="862.5" y2="306.3" gradientUnits="userSpaceOnUse"><stop offset="0" stop-color="#0463ef"></stop><stop offset="1" stop-color="#c835f8"></stop></linearGradient></defs><g><g><g clip-path="url(#a6b0febea-c65f-42b1-bb7f-489810995f8d)"><path fill="url(#bdde02842-c7bf-48ae-8c14-70cecd8389a5)" d="M303.77 275.76h579.14v279.79H303.77z"></path></g><g clip-path="url(#c49e772bf-d6d4-4784-a8c6-0b6a8bc8e0d2)"><path fill="url(#d2f5ce5b6-904c-4688-97c3-6033a0860d2d)" d="M0 232.16h325.67v366.37H0z"></path></g><g clip-path="url(#ee1fdfc3a-41ba-47a8-a5bf-3405b004586c)"><path fill="url(#fb2b56d87-63a6-4f97-8575-d22dea6008c3)" d="M68.45 0h762.31v277.05H68.45z"></path></g><g clip-path="url(#g1b9d1e1a-d9b8-40fc-8a7a-59d3f4516886)"><path fill="url(#h15f1875a-a55f-40dc-b2d5-b69c2e1bbd8e)" d="M51.84 531.78h794.2v326.87H51.84z"></path></g></g></g></svg>