<svg xmlns="http://www.w3.org/2000/svg"
	viewBox="1.2499998807907104 1.2491505146026611 86.50000762939453 97.50886535644531">
	<path fill="#8554FD"
		d="M87.74 31.69c0-.59-.31-1.14-.82-1.44L37.47 1.48c-.24-.14-.51-.22-.81-.23-.29-.01-.6.07-.73.15L2.09 21.1c-.51.3-.82.84-.83 1.44-.01 18.3-.01 36.62-.01 54.93 0 .59.32 1.14.83 1.44l33.65 19.58c.53.34 1.2.36 1.74.04l49.45-28.78c.51-.3.82-.84.83-1.44l-.01-36.62zM36.64 4.84l46.15 26.85-12.43 7.23-46.15-26.85 12.43-7.23zm3.91 35.05V25.43L68.69 41.8v14.47L40.55 39.89zM51.31 50l-10.77 6.26V43.73L51.31 50zM19.24 85.04L4.58 76.5V25.42l14.66 8.53v51.09zM6.22 22.53L20.9 14l14.68 8.54-14.68 8.53-14.68-8.54zm31 2.9V58.2l-14.66 8.53V33.95l14.66-8.52zm-2.25 68.76l-12.41-7.22V72.51l12.41 7.22v14.46zm1.67-17.34l-12.43-7.23 30.41-17.7 12.42 7.23-30.4 17.7zm47.78-9.5L38.3 94.19V79.73l46.12-26.84v14.46zm0-18.31l-12.4 7.22V41.8l12.4-7.22v14.46z">
	</path>
</svg>